G04 #@! TF.GenerationSoftware,KiCad,Pcbnew,(5.1.2)-1*
G04 #@! TF.CreationDate,2021-06-27T22:03:38+09:00*
G04 #@! TF.ProjectId,ls,6c732e6b-6963-4616-945f-706362585858,v1.0*
G04 #@! TF.SameCoordinates,Original*
G04 #@! TF.FileFunction,Legend,Bot*
G04 #@! TF.FilePolarity,Positive*
%FSLAX46Y46*%
G04 Gerber Fmt 4.6, Leading zero omitted, Abs format (unit mm)*
G04 Created by KiCad (PCBNEW (5.1.2)-1) date 2021-06-27 22:03:38*
%MOMM*%
%LPD*%
G04 APERTURE LIST*
%ADD10C,0.150000*%
%ADD11C,0.120000*%
%ADD12C,3.302000*%
%ADD13R,0.452000X0.452000*%
%ADD14R,0.452000X0.402000*%
%ADD15O,1.626000X1.902000*%
G04 APERTURE END LIST*
D10*
X149733333Y-96504761D02*
X149590476Y-96552380D01*
X149352380Y-96552380D01*
X149257142Y-96504761D01*
X149209523Y-96457142D01*
X149161904Y-96361904D01*
X149161904Y-96266666D01*
X149209523Y-96171428D01*
X149257142Y-96123809D01*
X149352380Y-96076190D01*
X149542857Y-96028571D01*
X149638095Y-95980952D01*
X149685714Y-95933333D01*
X149733333Y-95838095D01*
X149733333Y-95742857D01*
X149685714Y-95647619D01*
X149638095Y-95600000D01*
X149542857Y-95552380D01*
X149304761Y-95552380D01*
X149161904Y-95600000D01*
X148352380Y-96504761D02*
X148447619Y-96552380D01*
X148638095Y-96552380D01*
X148733333Y-96504761D01*
X148780952Y-96409523D01*
X148780952Y-96028571D01*
X148733333Y-95933333D01*
X148638095Y-95885714D01*
X148447619Y-95885714D01*
X148352380Y-95933333D01*
X148304761Y-96028571D01*
X148304761Y-96123809D01*
X148780952Y-96219047D01*
X147876190Y-95885714D02*
X147876190Y-96552380D01*
X147876190Y-95980952D02*
X147828571Y-95933333D01*
X147733333Y-95885714D01*
X147590476Y-95885714D01*
X147495238Y-95933333D01*
X147447619Y-96028571D01*
X147447619Y-96552380D01*
X147019047Y-96504761D02*
X146923809Y-96552380D01*
X146733333Y-96552380D01*
X146638095Y-96504761D01*
X146590476Y-96409523D01*
X146590476Y-96361904D01*
X146638095Y-96266666D01*
X146733333Y-96219047D01*
X146876190Y-96219047D01*
X146971428Y-96171428D01*
X147019047Y-96076190D01*
X147019047Y-96028571D01*
X146971428Y-95933333D01*
X146876190Y-95885714D01*
X146733333Y-95885714D01*
X146638095Y-95933333D01*
X146019047Y-96552380D02*
X146114285Y-96504761D01*
X146161904Y-96457142D01*
X146209523Y-96361904D01*
X146209523Y-96076190D01*
X146161904Y-95980952D01*
X146114285Y-95933333D01*
X146019047Y-95885714D01*
X145876190Y-95885714D01*
X145780952Y-95933333D01*
X145733333Y-95980952D01*
X145685714Y-96076190D01*
X145685714Y-96361904D01*
X145733333Y-96457142D01*
X145780952Y-96504761D01*
X145876190Y-96552380D01*
X146019047Y-96552380D01*
X145257142Y-96552380D02*
X145257142Y-95885714D01*
X145257142Y-96076190D02*
X145209523Y-95980952D01*
X145161904Y-95933333D01*
X145066666Y-95885714D01*
X144971428Y-95885714D01*
D11*
X144000000Y-104000000D02*
X144000000Y-97000000D01*
X151000000Y-104000000D02*
X144000000Y-104000000D01*
X151000000Y-97000000D02*
X151000000Y-104000000D01*
X144000000Y-97000000D02*
X151000000Y-97000000D01*
D10*
X151423809Y-87627380D02*
X151900000Y-87627380D01*
X151900000Y-86627380D01*
X151090476Y-87627380D02*
X151090476Y-86960714D01*
X151090476Y-86627380D02*
X151138095Y-86675000D01*
X151090476Y-86722619D01*
X151042857Y-86675000D01*
X151090476Y-86627380D01*
X151090476Y-86722619D01*
X150185714Y-86960714D02*
X150185714Y-87770238D01*
X150233333Y-87865476D01*
X150280952Y-87913095D01*
X150376190Y-87960714D01*
X150519047Y-87960714D01*
X150614285Y-87913095D01*
X150185714Y-87579761D02*
X150280952Y-87627380D01*
X150471428Y-87627380D01*
X150566666Y-87579761D01*
X150614285Y-87532142D01*
X150661904Y-87436904D01*
X150661904Y-87151190D01*
X150614285Y-87055952D01*
X150566666Y-87008333D01*
X150471428Y-86960714D01*
X150280952Y-86960714D01*
X150185714Y-87008333D01*
X149709523Y-87627380D02*
X149709523Y-86627380D01*
X149280952Y-87627380D02*
X149280952Y-87103571D01*
X149328571Y-87008333D01*
X149423809Y-86960714D01*
X149566666Y-86960714D01*
X149661904Y-87008333D01*
X149709523Y-87055952D01*
X148947619Y-86960714D02*
X148566666Y-86960714D01*
X148804761Y-86627380D02*
X148804761Y-87484523D01*
X148757142Y-87579761D01*
X148661904Y-87627380D01*
X148566666Y-87627380D01*
X147519047Y-87579761D02*
X147376190Y-87627380D01*
X147138095Y-87627380D01*
X147042857Y-87579761D01*
X146995238Y-87532142D01*
X146947619Y-87436904D01*
X146947619Y-87341666D01*
X146995238Y-87246428D01*
X147042857Y-87198809D01*
X147138095Y-87151190D01*
X147328571Y-87103571D01*
X147423809Y-87055952D01*
X147471428Y-87008333D01*
X147519047Y-86913095D01*
X147519047Y-86817857D01*
X147471428Y-86722619D01*
X147423809Y-86675000D01*
X147328571Y-86627380D01*
X147090476Y-86627380D01*
X146947619Y-86675000D01*
X146138095Y-87579761D02*
X146233333Y-87627380D01*
X146423809Y-87627380D01*
X146519047Y-87579761D01*
X146566666Y-87484523D01*
X146566666Y-87103571D01*
X146519047Y-87008333D01*
X146423809Y-86960714D01*
X146233333Y-86960714D01*
X146138095Y-87008333D01*
X146090476Y-87103571D01*
X146090476Y-87198809D01*
X146566666Y-87294047D01*
X145661904Y-86960714D02*
X145661904Y-87627380D01*
X145661904Y-87055952D02*
X145614285Y-87008333D01*
X145519047Y-86960714D01*
X145376190Y-86960714D01*
X145280952Y-87008333D01*
X145233333Y-87103571D01*
X145233333Y-87627380D01*
X144804761Y-87579761D02*
X144709523Y-87627380D01*
X144519047Y-87627380D01*
X144423809Y-87579761D01*
X144376190Y-87484523D01*
X144376190Y-87436904D01*
X144423809Y-87341666D01*
X144519047Y-87294047D01*
X144661904Y-87294047D01*
X144757142Y-87246428D01*
X144804761Y-87151190D01*
X144804761Y-87103571D01*
X144757142Y-87008333D01*
X144661904Y-86960714D01*
X144519047Y-86960714D01*
X144423809Y-87008333D01*
X143804761Y-87627380D02*
X143900000Y-87579761D01*
X143947619Y-87532142D01*
X143995238Y-87436904D01*
X143995238Y-87151190D01*
X143947619Y-87055952D01*
X143900000Y-87008333D01*
X143804761Y-86960714D01*
X143661904Y-86960714D01*
X143566666Y-87008333D01*
X143519047Y-87055952D01*
X143471428Y-87151190D01*
X143471428Y-87436904D01*
X143519047Y-87532142D01*
X143566666Y-87579761D01*
X143661904Y-87627380D01*
X143804761Y-87627380D01*
X143042857Y-87627380D02*
X143042857Y-86960714D01*
X143042857Y-87151190D02*
X142995238Y-87055952D01*
X142947619Y-87008333D01*
X142852380Y-86960714D01*
X142757142Y-86960714D01*
X154685714Y-88372619D02*
X154638095Y-88325000D01*
X154542857Y-88277380D01*
X154304761Y-88277380D01*
X154209523Y-88325000D01*
X154161904Y-88372619D01*
X154114285Y-88467857D01*
X154114285Y-88563095D01*
X154161904Y-88705952D01*
X154733333Y-89277380D01*
X154114285Y-89277380D01*
X153161904Y-89277380D02*
X153733333Y-89277380D01*
X153447619Y-89277380D02*
X153447619Y-88277380D01*
X153542857Y-88420238D01*
X153638095Y-88515476D01*
X153733333Y-88563095D01*
X152542857Y-88277380D02*
X152447619Y-88277380D01*
X152352380Y-88325000D01*
X152304761Y-88372619D01*
X152257142Y-88467857D01*
X152209523Y-88658333D01*
X152209523Y-88896428D01*
X152257142Y-89086904D01*
X152304761Y-89182142D01*
X152352380Y-89229761D01*
X152447619Y-89277380D01*
X152542857Y-89277380D01*
X152638095Y-89229761D01*
X152685714Y-89182142D01*
X152733333Y-89086904D01*
X152780952Y-88896428D01*
X152780952Y-88658333D01*
X152733333Y-88467857D01*
X152685714Y-88372619D01*
X152638095Y-88325000D01*
X152542857Y-88277380D01*
X151352380Y-88277380D02*
X151542857Y-88277380D01*
X151638095Y-88325000D01*
X151685714Y-88372619D01*
X151780952Y-88515476D01*
X151828571Y-88705952D01*
X151828571Y-89086904D01*
X151780952Y-89182142D01*
X151733333Y-89229761D01*
X151638095Y-89277380D01*
X151447619Y-89277380D01*
X151352380Y-89229761D01*
X151304761Y-89182142D01*
X151257142Y-89086904D01*
X151257142Y-88848809D01*
X151304761Y-88753571D01*
X151352380Y-88705952D01*
X151447619Y-88658333D01*
X151638095Y-88658333D01*
X151733333Y-88705952D01*
X151780952Y-88753571D01*
X151828571Y-88848809D01*
X150161904Y-88610714D02*
X149923809Y-89277380D01*
X149685714Y-88610714D01*
X148780952Y-89277380D02*
X149352380Y-89277380D01*
X149066666Y-89277380D02*
X149066666Y-88277380D01*
X149161904Y-88420238D01*
X149257142Y-88515476D01*
X149352380Y-88563095D01*
X148352380Y-89182142D02*
X148304761Y-89229761D01*
X148352380Y-89277380D01*
X148400000Y-89229761D01*
X148352380Y-89182142D01*
X148352380Y-89277380D01*
X147685714Y-88277380D02*
X147590476Y-88277380D01*
X147495238Y-88325000D01*
X147447619Y-88372619D01*
X147400000Y-88467857D01*
X147352380Y-88658333D01*
X147352380Y-88896428D01*
X147400000Y-89086904D01*
X147447619Y-89182142D01*
X147495238Y-89229761D01*
X147590476Y-89277380D01*
X147685714Y-89277380D01*
X147780952Y-89229761D01*
X147828571Y-89182142D01*
X147876190Y-89086904D01*
X147923809Y-88896428D01*
X147923809Y-88658333D01*
X147876190Y-88467857D01*
X147828571Y-88372619D01*
X147780952Y-88325000D01*
X147685714Y-88277380D01*
X145590476Y-89182142D02*
X145638095Y-89229761D01*
X145780952Y-89277380D01*
X145876190Y-89277380D01*
X146019047Y-89229761D01*
X146114285Y-89134523D01*
X146161904Y-89039285D01*
X146209523Y-88848809D01*
X146209523Y-88705952D01*
X146161904Y-88515476D01*
X146114285Y-88420238D01*
X146019047Y-88325000D01*
X145876190Y-88277380D01*
X145780952Y-88277380D01*
X145638095Y-88325000D01*
X145590476Y-88372619D01*
X145161904Y-89277380D02*
X145161904Y-88610714D01*
X145161904Y-88801190D02*
X145114285Y-88705952D01*
X145066666Y-88658333D01*
X144971428Y-88610714D01*
X144876190Y-88610714D01*
X144161904Y-89229761D02*
X144257142Y-89277380D01*
X144447619Y-89277380D01*
X144542857Y-89229761D01*
X144590476Y-89134523D01*
X144590476Y-88753571D01*
X144542857Y-88658333D01*
X144447619Y-88610714D01*
X144257142Y-88610714D01*
X144161904Y-88658333D01*
X144114285Y-88753571D01*
X144114285Y-88848809D01*
X144590476Y-88944047D01*
X143733333Y-89229761D02*
X143638095Y-89277380D01*
X143447619Y-89277380D01*
X143352380Y-89229761D01*
X143304761Y-89134523D01*
X143304761Y-89086904D01*
X143352380Y-88991666D01*
X143447619Y-88944047D01*
X143590476Y-88944047D01*
X143685714Y-88896428D01*
X143733333Y-88801190D01*
X143733333Y-88753571D01*
X143685714Y-88658333D01*
X143590476Y-88610714D01*
X143447619Y-88610714D01*
X143352380Y-88658333D01*
X142447619Y-89229761D02*
X142542857Y-89277380D01*
X142733333Y-89277380D01*
X142828571Y-89229761D01*
X142876190Y-89182142D01*
X142923809Y-89086904D01*
X142923809Y-88801190D01*
X142876190Y-88705952D01*
X142828571Y-88658333D01*
X142733333Y-88610714D01*
X142542857Y-88610714D01*
X142447619Y-88658333D01*
X141638095Y-89229761D02*
X141733333Y-89277380D01*
X141923809Y-89277380D01*
X142019047Y-89229761D01*
X142066666Y-89134523D01*
X142066666Y-88753571D01*
X142019047Y-88658333D01*
X141923809Y-88610714D01*
X141733333Y-88610714D01*
X141638095Y-88658333D01*
X141590476Y-88753571D01*
X141590476Y-88848809D01*
X142066666Y-88944047D01*
X141161904Y-88610714D02*
X141161904Y-89277380D01*
X141161904Y-88705952D02*
X141114285Y-88658333D01*
X141019047Y-88610714D01*
X140876190Y-88610714D01*
X140780952Y-88658333D01*
X140733333Y-88753571D01*
X140733333Y-89277380D01*
X140400000Y-88610714D02*
X140019047Y-88610714D01*
X140257142Y-88277380D02*
X140257142Y-89134523D01*
X140209523Y-89229761D01*
X140114285Y-89277380D01*
X140019047Y-89277380D01*
X148261904Y-104452380D02*
X148261904Y-105261904D01*
X148214285Y-105357142D01*
X148166666Y-105404761D01*
X148071428Y-105452380D01*
X147880952Y-105452380D01*
X147785714Y-105404761D01*
X147738095Y-105357142D01*
X147690476Y-105261904D01*
X147690476Y-104452380D01*
X146690476Y-105452380D02*
X147261904Y-105452380D01*
X146976190Y-105452380D02*
X146976190Y-104452380D01*
X147071428Y-104595238D01*
X147166666Y-104690476D01*
X147261904Y-104738095D01*
X145800000Y-101932142D02*
X145752380Y-101979761D01*
X145800000Y-102027380D01*
X145847619Y-101979761D01*
X145800000Y-101932142D01*
X145800000Y-102027380D01*
%LPC*%
D12*
X157000000Y-112000000D03*
X157000000Y-88000000D03*
X138000000Y-112000000D03*
X138000000Y-88000000D03*
D13*
X148050000Y-101075000D03*
D14*
X148050000Y-100500000D03*
D13*
X148050000Y-99925000D03*
X146800000Y-99925000D03*
D14*
X146800000Y-100500000D03*
D13*
X146800000Y-101075000D03*
D15*
X144500000Y-108500000D03*
X146500000Y-108500000D03*
X148500000Y-108500000D03*
X150500000Y-108500000D03*
M02*
