G04 #@! TF.GenerationSoftware,KiCad,Pcbnew,(5.1.2)-1*
G04 #@! TF.CreationDate,2021-06-27T22:03:38+09:00*
G04 #@! TF.ProjectId,ls,6c732e6b-6963-4616-945f-706362585858,v1.0*
G04 #@! TF.SameCoordinates,Original*
G04 #@! TF.FileFunction,Soldermask,Bot*
G04 #@! TF.FilePolarity,Negative*
%FSLAX46Y46*%
G04 Gerber Fmt 4.6, Leading zero omitted, Abs format (unit mm)*
G04 Created by KiCad (PCBNEW (5.1.2)-1) date 2021-06-27 22:03:38*
%MOMM*%
%LPD*%
G04 APERTURE LIST*
%ADD10C,0.100000*%
G04 APERTURE END LIST*
D10*
G36*
X138375256Y-110391298D02*
G01*
X138481579Y-110412447D01*
X138782042Y-110536903D01*
X139052451Y-110717585D01*
X139282415Y-110947549D01*
X139463097Y-111217958D01*
X139587553Y-111518421D01*
X139651000Y-111837391D01*
X139651000Y-112162609D01*
X139587553Y-112481579D01*
X139463097Y-112782042D01*
X139282415Y-113052451D01*
X139052451Y-113282415D01*
X138782042Y-113463097D01*
X138481579Y-113587553D01*
X138375256Y-113608702D01*
X138162611Y-113651000D01*
X137837389Y-113651000D01*
X137624744Y-113608702D01*
X137518421Y-113587553D01*
X137217958Y-113463097D01*
X136947549Y-113282415D01*
X136717585Y-113052451D01*
X136536903Y-112782042D01*
X136412447Y-112481579D01*
X136349000Y-112162609D01*
X136349000Y-111837391D01*
X136412447Y-111518421D01*
X136536903Y-111217958D01*
X136717585Y-110947549D01*
X136947549Y-110717585D01*
X137217958Y-110536903D01*
X137518421Y-110412447D01*
X137624744Y-110391298D01*
X137837389Y-110349000D01*
X138162611Y-110349000D01*
X138375256Y-110391298D01*
X138375256Y-110391298D01*
G37*
G36*
X157375256Y-110391298D02*
G01*
X157481579Y-110412447D01*
X157782042Y-110536903D01*
X158052451Y-110717585D01*
X158282415Y-110947549D01*
X158463097Y-111217958D01*
X158587553Y-111518421D01*
X158651000Y-111837391D01*
X158651000Y-112162609D01*
X158587553Y-112481579D01*
X158463097Y-112782042D01*
X158282415Y-113052451D01*
X158052451Y-113282415D01*
X157782042Y-113463097D01*
X157481579Y-113587553D01*
X157375256Y-113608702D01*
X157162611Y-113651000D01*
X156837389Y-113651000D01*
X156624744Y-113608702D01*
X156518421Y-113587553D01*
X156217958Y-113463097D01*
X155947549Y-113282415D01*
X155717585Y-113052451D01*
X155536903Y-112782042D01*
X155412447Y-112481579D01*
X155349000Y-112162609D01*
X155349000Y-111837391D01*
X155412447Y-111518421D01*
X155536903Y-111217958D01*
X155717585Y-110947549D01*
X155947549Y-110717585D01*
X156217958Y-110536903D01*
X156518421Y-110412447D01*
X156624744Y-110391298D01*
X156837389Y-110349000D01*
X157162611Y-110349000D01*
X157375256Y-110391298D01*
X157375256Y-110391298D01*
G37*
G36*
X148659376Y-107560764D02*
G01*
X148812627Y-107607252D01*
X148812630Y-107607253D01*
X148953863Y-107682744D01*
X149077659Y-107784341D01*
X149179256Y-107908137D01*
X149254747Y-108049370D01*
X149254748Y-108049373D01*
X149301236Y-108202625D01*
X149313000Y-108322068D01*
X149313000Y-108677933D01*
X149301236Y-108797376D01*
X149254748Y-108950626D01*
X149254747Y-108950630D01*
X149179256Y-109091863D01*
X149077659Y-109215659D01*
X148953863Y-109317256D01*
X148812629Y-109392747D01*
X148812626Y-109392748D01*
X148659375Y-109439236D01*
X148500000Y-109454933D01*
X148340624Y-109439236D01*
X148187373Y-109392748D01*
X148187370Y-109392747D01*
X148046137Y-109317256D01*
X147922341Y-109215659D01*
X147820744Y-109091863D01*
X147745253Y-108950629D01*
X147745252Y-108950626D01*
X147698764Y-108797375D01*
X147687000Y-108677932D01*
X147687000Y-108322067D01*
X147698764Y-108202624D01*
X147745252Y-108049373D01*
X147745253Y-108049370D01*
X147820744Y-107908137D01*
X147922341Y-107784341D01*
X148046137Y-107682744D01*
X148187371Y-107607253D01*
X148187374Y-107607252D01*
X148340625Y-107560764D01*
X148500000Y-107545067D01*
X148659376Y-107560764D01*
X148659376Y-107560764D01*
G37*
G36*
X150659376Y-107560764D02*
G01*
X150812627Y-107607252D01*
X150812630Y-107607253D01*
X150953863Y-107682744D01*
X151077659Y-107784341D01*
X151179256Y-107908137D01*
X151254747Y-108049370D01*
X151254748Y-108049373D01*
X151301236Y-108202625D01*
X151313000Y-108322068D01*
X151313000Y-108677933D01*
X151301236Y-108797376D01*
X151254748Y-108950626D01*
X151254747Y-108950630D01*
X151179256Y-109091863D01*
X151077659Y-109215659D01*
X150953863Y-109317256D01*
X150812629Y-109392747D01*
X150812626Y-109392748D01*
X150659375Y-109439236D01*
X150500000Y-109454933D01*
X150340624Y-109439236D01*
X150187373Y-109392748D01*
X150187370Y-109392747D01*
X150046137Y-109317256D01*
X149922341Y-109215659D01*
X149820744Y-109091863D01*
X149745253Y-108950629D01*
X149745252Y-108950626D01*
X149698764Y-108797375D01*
X149687000Y-108677932D01*
X149687000Y-108322067D01*
X149698764Y-108202624D01*
X149745252Y-108049373D01*
X149745253Y-108049370D01*
X149820744Y-107908137D01*
X149922341Y-107784341D01*
X150046137Y-107682744D01*
X150187371Y-107607253D01*
X150187374Y-107607252D01*
X150340625Y-107560764D01*
X150500000Y-107545067D01*
X150659376Y-107560764D01*
X150659376Y-107560764D01*
G37*
G36*
X146659376Y-107560764D02*
G01*
X146812627Y-107607252D01*
X146812630Y-107607253D01*
X146953863Y-107682744D01*
X147077659Y-107784341D01*
X147179256Y-107908137D01*
X147254747Y-108049370D01*
X147254748Y-108049373D01*
X147301236Y-108202625D01*
X147313000Y-108322068D01*
X147313000Y-108677933D01*
X147301236Y-108797376D01*
X147254748Y-108950626D01*
X147254747Y-108950630D01*
X147179256Y-109091863D01*
X147077659Y-109215659D01*
X146953863Y-109317256D01*
X146812629Y-109392747D01*
X146812626Y-109392748D01*
X146659375Y-109439236D01*
X146500000Y-109454933D01*
X146340624Y-109439236D01*
X146187373Y-109392748D01*
X146187370Y-109392747D01*
X146046137Y-109317256D01*
X145922341Y-109215659D01*
X145820744Y-109091863D01*
X145745253Y-108950629D01*
X145745252Y-108950626D01*
X145698764Y-108797375D01*
X145687000Y-108677932D01*
X145687000Y-108322067D01*
X145698764Y-108202624D01*
X145745252Y-108049373D01*
X145745253Y-108049370D01*
X145820744Y-107908137D01*
X145922341Y-107784341D01*
X146046137Y-107682744D01*
X146187371Y-107607253D01*
X146187374Y-107607252D01*
X146340625Y-107560764D01*
X146500000Y-107545067D01*
X146659376Y-107560764D01*
X146659376Y-107560764D01*
G37*
G36*
X144659376Y-107560764D02*
G01*
X144812627Y-107607252D01*
X144812630Y-107607253D01*
X144953863Y-107682744D01*
X145077659Y-107784341D01*
X145179256Y-107908137D01*
X145254747Y-108049370D01*
X145254748Y-108049373D01*
X145301236Y-108202625D01*
X145313000Y-108322068D01*
X145313000Y-108677933D01*
X145301236Y-108797376D01*
X145254748Y-108950626D01*
X145254747Y-108950630D01*
X145179256Y-109091863D01*
X145077659Y-109215659D01*
X144953863Y-109317256D01*
X144812629Y-109392747D01*
X144812626Y-109392748D01*
X144659375Y-109439236D01*
X144500000Y-109454933D01*
X144340624Y-109439236D01*
X144187373Y-109392748D01*
X144187370Y-109392747D01*
X144046137Y-109317256D01*
X143922341Y-109215659D01*
X143820744Y-109091863D01*
X143745253Y-108950629D01*
X143745252Y-108950626D01*
X143698764Y-108797375D01*
X143687000Y-108677932D01*
X143687000Y-108322067D01*
X143698764Y-108202624D01*
X143745252Y-108049373D01*
X143745253Y-108049370D01*
X143820744Y-107908137D01*
X143922341Y-107784341D01*
X144046137Y-107682744D01*
X144187371Y-107607253D01*
X144187374Y-107607252D01*
X144340625Y-107560764D01*
X144500000Y-107545067D01*
X144659376Y-107560764D01*
X144659376Y-107560764D01*
G37*
G36*
X148276000Y-101301000D02*
G01*
X147824000Y-101301000D01*
X147824000Y-99699000D01*
X148276000Y-99699000D01*
X148276000Y-101301000D01*
X148276000Y-101301000D01*
G37*
G36*
X147026000Y-101301000D02*
G01*
X146574000Y-101301000D01*
X146574000Y-99699000D01*
X147026000Y-99699000D01*
X147026000Y-101301000D01*
X147026000Y-101301000D01*
G37*
G36*
X138375256Y-86391298D02*
G01*
X138481579Y-86412447D01*
X138782042Y-86536903D01*
X139052451Y-86717585D01*
X139282415Y-86947549D01*
X139463097Y-87217958D01*
X139587553Y-87518421D01*
X139651000Y-87837391D01*
X139651000Y-88162609D01*
X139587553Y-88481579D01*
X139463097Y-88782042D01*
X139282415Y-89052451D01*
X139052451Y-89282415D01*
X138782042Y-89463097D01*
X138481579Y-89587553D01*
X138375256Y-89608702D01*
X138162611Y-89651000D01*
X137837389Y-89651000D01*
X137624744Y-89608702D01*
X137518421Y-89587553D01*
X137217958Y-89463097D01*
X136947549Y-89282415D01*
X136717585Y-89052451D01*
X136536903Y-88782042D01*
X136412447Y-88481579D01*
X136349000Y-88162609D01*
X136349000Y-87837391D01*
X136412447Y-87518421D01*
X136536903Y-87217958D01*
X136717585Y-86947549D01*
X136947549Y-86717585D01*
X137217958Y-86536903D01*
X137518421Y-86412447D01*
X137624744Y-86391298D01*
X137837389Y-86349000D01*
X138162611Y-86349000D01*
X138375256Y-86391298D01*
X138375256Y-86391298D01*
G37*
G36*
X157375256Y-86391298D02*
G01*
X157481579Y-86412447D01*
X157782042Y-86536903D01*
X158052451Y-86717585D01*
X158282415Y-86947549D01*
X158463097Y-87217958D01*
X158587553Y-87518421D01*
X158651000Y-87837391D01*
X158651000Y-88162609D01*
X158587553Y-88481579D01*
X158463097Y-88782042D01*
X158282415Y-89052451D01*
X158052451Y-89282415D01*
X157782042Y-89463097D01*
X157481579Y-89587553D01*
X157375256Y-89608702D01*
X157162611Y-89651000D01*
X156837389Y-89651000D01*
X156624744Y-89608702D01*
X156518421Y-89587553D01*
X156217958Y-89463097D01*
X155947549Y-89282415D01*
X155717585Y-89052451D01*
X155536903Y-88782042D01*
X155412447Y-88481579D01*
X155349000Y-88162609D01*
X155349000Y-87837391D01*
X155412447Y-87518421D01*
X155536903Y-87217958D01*
X155717585Y-86947549D01*
X155947549Y-86717585D01*
X156217958Y-86536903D01*
X156518421Y-86412447D01*
X156624744Y-86391298D01*
X156837389Y-86349000D01*
X157162611Y-86349000D01*
X157375256Y-86391298D01*
X157375256Y-86391298D01*
G37*
M02*
