G04 #@! TF.GenerationSoftware,KiCad,Pcbnew,(5.1.2)-1*
G04 #@! TF.CreationDate,2021-06-27T22:03:38+09:00*
G04 #@! TF.ProjectId,ls,6c732e6b-6963-4616-945f-706362585858,v1.0*
G04 #@! TF.SameCoordinates,Original*
G04 #@! TF.FileFunction,Copper,L2,Bot*
G04 #@! TF.FilePolarity,Positive*
%FSLAX46Y46*%
G04 Gerber Fmt 4.6, Leading zero omitted, Abs format (unit mm)*
G04 Created by KiCad (PCBNEW (5.1.2)-1) date 2021-06-27 22:03:38*
%MOMM*%
%LPD*%
G04 APERTURE LIST*
%ADD10R,0.350000X0.350000*%
%ADD11R,0.350000X0.300000*%
%ADD12O,1.524000X1.800000*%
%ADD13C,0.800000*%
%ADD14C,0.250000*%
%ADD15C,0.254000*%
G04 APERTURE END LIST*
D10*
X148050000Y-101075000D03*
D11*
X148050000Y-100500000D03*
D10*
X148050000Y-99925000D03*
X146800000Y-99925000D03*
D11*
X146800000Y-100500000D03*
D10*
X146800000Y-101075000D03*
D12*
X144500000Y-108500000D03*
X146500000Y-108500000D03*
X148500000Y-108500000D03*
X150500000Y-108500000D03*
D13*
X154900000Y-92100000D03*
X141900000Y-92800000D03*
X144500000Y-102400000D03*
X148994700Y-97169700D03*
X150500000Y-102500000D03*
X147279200Y-91364800D03*
X147173100Y-97050600D03*
X149175500Y-90617500D03*
D14*
X144500000Y-108500000D02*
X144500000Y-107350000D01*
X144500000Y-107350000D02*
X142600000Y-105450000D01*
X142600000Y-99000000D02*
X143600000Y-98000000D01*
X148050000Y-99500000D02*
X148050000Y-99925000D01*
X142600000Y-105450000D02*
X142600000Y-99000000D01*
X143600000Y-98000000D02*
X146550000Y-98000000D01*
X146550000Y-98000000D02*
X148050000Y-99500000D01*
X146800000Y-101075000D02*
X145825000Y-101075000D01*
X145825000Y-101075000D02*
X144500000Y-102400000D01*
X149668600Y-101668600D02*
X149668600Y-97843600D01*
X149668600Y-97843600D02*
X148994700Y-97169700D01*
X150500000Y-102500000D02*
X149668600Y-101668600D01*
X149668600Y-101668600D02*
X149075000Y-101075000D01*
X149075000Y-101075000D02*
X148050000Y-101075000D01*
X147279200Y-91364800D02*
X147279200Y-96944500D01*
X147279200Y-96944500D02*
X147173100Y-97050600D01*
X148500000Y-108500000D02*
X151237100Y-105762900D01*
X151237100Y-105762900D02*
X151237100Y-92679100D01*
X151237100Y-92679100D02*
X149175500Y-90617500D01*
D15*
G36*
X159065424Y-85669580D02*
G01*
X159128356Y-85688580D01*
X159186405Y-85719445D01*
X159237343Y-85760989D01*
X159279248Y-85811644D01*
X159310515Y-85869471D01*
X159329956Y-85932272D01*
X159340001Y-86027845D01*
X159340000Y-113967721D01*
X159330420Y-114065424D01*
X159311420Y-114128357D01*
X159280554Y-114186406D01*
X159239011Y-114237343D01*
X159188356Y-114279248D01*
X159130529Y-114310515D01*
X159067728Y-114329956D01*
X158972165Y-114340000D01*
X136032279Y-114340000D01*
X135934576Y-114330420D01*
X135871643Y-114311420D01*
X135813594Y-114280554D01*
X135762657Y-114239011D01*
X135720752Y-114188356D01*
X135689485Y-114130529D01*
X135670044Y-114067728D01*
X135660000Y-113972165D01*
X135660000Y-111779872D01*
X135765000Y-111779872D01*
X135765000Y-112220128D01*
X135850890Y-112651925D01*
X136019369Y-113058669D01*
X136263962Y-113424729D01*
X136575271Y-113736038D01*
X136941331Y-113980631D01*
X137348075Y-114149110D01*
X137779872Y-114235000D01*
X138220128Y-114235000D01*
X138651925Y-114149110D01*
X139058669Y-113980631D01*
X139424729Y-113736038D01*
X139736038Y-113424729D01*
X139980631Y-113058669D01*
X140149110Y-112651925D01*
X140235000Y-112220128D01*
X140235000Y-111779872D01*
X154765000Y-111779872D01*
X154765000Y-112220128D01*
X154850890Y-112651925D01*
X155019369Y-113058669D01*
X155263962Y-113424729D01*
X155575271Y-113736038D01*
X155941331Y-113980631D01*
X156348075Y-114149110D01*
X156779872Y-114235000D01*
X157220128Y-114235000D01*
X157651925Y-114149110D01*
X158058669Y-113980631D01*
X158424729Y-113736038D01*
X158736038Y-113424729D01*
X158980631Y-113058669D01*
X159149110Y-112651925D01*
X159235000Y-112220128D01*
X159235000Y-111779872D01*
X159149110Y-111348075D01*
X158980631Y-110941331D01*
X158736038Y-110575271D01*
X158424729Y-110263962D01*
X158058669Y-110019369D01*
X157651925Y-109850890D01*
X157220128Y-109765000D01*
X156779872Y-109765000D01*
X156348075Y-109850890D01*
X155941331Y-110019369D01*
X155575271Y-110263962D01*
X155263962Y-110575271D01*
X155019369Y-110941331D01*
X154850890Y-111348075D01*
X154765000Y-111779872D01*
X140235000Y-111779872D01*
X140149110Y-111348075D01*
X139980631Y-110941331D01*
X139736038Y-110575271D01*
X139424729Y-110263962D01*
X139058669Y-110019369D01*
X138651925Y-109850890D01*
X138220128Y-109765000D01*
X137779872Y-109765000D01*
X137348075Y-109850890D01*
X136941331Y-110019369D01*
X136575271Y-110263962D01*
X136263962Y-110575271D01*
X136019369Y-110941331D01*
X135850890Y-111348075D01*
X135765000Y-111779872D01*
X135660000Y-111779872D01*
X135660000Y-108845752D01*
X143117986Y-108845752D01*
X143185071Y-109111378D01*
X143302688Y-109358812D01*
X143466317Y-109578546D01*
X143669670Y-109762135D01*
X143904932Y-109902524D01*
X144156930Y-109992220D01*
X144373000Y-109869720D01*
X144373000Y-108627000D01*
X143261251Y-108627000D01*
X143117986Y-108845752D01*
X135660000Y-108845752D01*
X135660000Y-108154248D01*
X143117986Y-108154248D01*
X143261251Y-108373000D01*
X144373000Y-108373000D01*
X144373000Y-107130280D01*
X144156930Y-107007780D01*
X143904932Y-107097476D01*
X143669670Y-107237865D01*
X143466317Y-107421454D01*
X143302688Y-107641188D01*
X143185071Y-107888622D01*
X143117986Y-108154248D01*
X135660000Y-108154248D01*
X135660000Y-102298061D01*
X143465000Y-102298061D01*
X143465000Y-102501939D01*
X143504774Y-102701898D01*
X143582795Y-102890256D01*
X143696063Y-103059774D01*
X143840226Y-103203937D01*
X144009744Y-103317205D01*
X144198102Y-103395226D01*
X144398061Y-103435000D01*
X144601939Y-103435000D01*
X144801898Y-103395226D01*
X144990256Y-103317205D01*
X145159774Y-103203937D01*
X145303937Y-103059774D01*
X145417205Y-102890256D01*
X145495226Y-102701898D01*
X145510124Y-102627000D01*
X149469985Y-102627000D01*
X149504774Y-102801898D01*
X149582795Y-102990256D01*
X149696063Y-103159774D01*
X149840226Y-103303937D01*
X150009744Y-103417205D01*
X150198102Y-103495226D01*
X150398061Y-103535000D01*
X150477100Y-103535000D01*
X150477100Y-105448098D01*
X148901320Y-107023879D01*
X148773860Y-106985214D01*
X148500000Y-106958241D01*
X148226141Y-106985214D01*
X147962806Y-107065096D01*
X147720114Y-107194817D01*
X147507393Y-107369392D01*
X147500000Y-107378400D01*
X147492608Y-107369392D01*
X147279887Y-107194817D01*
X147037195Y-107065096D01*
X146773860Y-106985214D01*
X146500000Y-106958241D01*
X146226141Y-106985214D01*
X145962806Y-107065096D01*
X145720114Y-107194817D01*
X145507393Y-107369392D01*
X145494039Y-107385663D01*
X145330330Y-107237865D01*
X145095068Y-107097476D01*
X144843070Y-107007780D01*
X144627000Y-107130280D01*
X144627000Y-108373000D01*
X144647000Y-108373000D01*
X144647000Y-108627000D01*
X144627000Y-108627000D01*
X144627000Y-109869720D01*
X144843070Y-109992220D01*
X145095068Y-109902524D01*
X145330330Y-109762135D01*
X145494039Y-109614337D01*
X145507392Y-109630607D01*
X145720113Y-109805183D01*
X145962805Y-109934904D01*
X146226140Y-110014786D01*
X146500000Y-110041759D01*
X146773859Y-110014786D01*
X147037194Y-109934904D01*
X147279886Y-109805183D01*
X147492607Y-109630608D01*
X147500000Y-109621600D01*
X147507392Y-109630607D01*
X147720113Y-109805183D01*
X147962805Y-109934904D01*
X148226140Y-110014786D01*
X148500000Y-110041759D01*
X148773859Y-110014786D01*
X149037194Y-109934904D01*
X149279886Y-109805183D01*
X149492607Y-109630608D01*
X149500000Y-109621600D01*
X149507392Y-109630607D01*
X149720113Y-109805183D01*
X149962805Y-109934904D01*
X150226140Y-110014786D01*
X150500000Y-110041759D01*
X150773859Y-110014786D01*
X151037194Y-109934904D01*
X151279886Y-109805183D01*
X151492607Y-109630608D01*
X151667183Y-109417887D01*
X151796904Y-109175195D01*
X151876786Y-108911860D01*
X151897000Y-108706625D01*
X151897000Y-108293376D01*
X151876786Y-108088141D01*
X151796904Y-107824806D01*
X151667183Y-107582113D01*
X151492608Y-107369392D01*
X151279887Y-107194817D01*
X151037195Y-107065096D01*
X151016104Y-107058698D01*
X151748104Y-106326698D01*
X151777101Y-106302901D01*
X151803432Y-106270817D01*
X151872074Y-106187177D01*
X151942646Y-106055147D01*
X151942646Y-106055146D01*
X151986103Y-105911886D01*
X151997100Y-105800233D01*
X151997100Y-105800223D01*
X152000776Y-105762900D01*
X151997100Y-105725577D01*
X151997100Y-92716425D01*
X152000776Y-92679100D01*
X151997100Y-92641775D01*
X151997100Y-92641767D01*
X151986103Y-92530114D01*
X151942646Y-92386853D01*
X151872074Y-92254824D01*
X151777101Y-92139099D01*
X151748103Y-92115301D01*
X150210500Y-90577699D01*
X150210500Y-90515561D01*
X150170726Y-90315602D01*
X150092705Y-90127244D01*
X149979437Y-89957726D01*
X149835274Y-89813563D01*
X149665756Y-89700295D01*
X149477398Y-89622274D01*
X149277439Y-89582500D01*
X149073561Y-89582500D01*
X148873602Y-89622274D01*
X148685244Y-89700295D01*
X148515726Y-89813563D01*
X148371563Y-89957726D01*
X148258295Y-90127244D01*
X148180274Y-90315602D01*
X148140500Y-90515561D01*
X148140500Y-90719439D01*
X148160733Y-90821156D01*
X148083137Y-90705026D01*
X147938974Y-90560863D01*
X147769456Y-90447595D01*
X147581098Y-90369574D01*
X147381139Y-90329800D01*
X147177261Y-90329800D01*
X146977302Y-90369574D01*
X146788944Y-90447595D01*
X146619426Y-90560863D01*
X146475263Y-90705026D01*
X146361995Y-90874544D01*
X146283974Y-91062902D01*
X146244200Y-91262861D01*
X146244200Y-91466739D01*
X146283974Y-91666698D01*
X146361995Y-91855056D01*
X146475263Y-92024574D01*
X146519200Y-92068511D01*
X146519201Y-96242738D01*
X146513326Y-96246663D01*
X146369163Y-96390826D01*
X146255895Y-96560344D01*
X146177874Y-96748702D01*
X146138100Y-96948661D01*
X146138100Y-97152539D01*
X146177874Y-97352498D01*
X146255895Y-97540856D01*
X146369163Y-97710374D01*
X146513326Y-97854537D01*
X146682844Y-97967805D01*
X146871202Y-98045826D01*
X147071161Y-98085600D01*
X147275039Y-98085600D01*
X147474998Y-98045826D01*
X147663356Y-97967805D01*
X147832874Y-97854537D01*
X147977037Y-97710374D01*
X148051943Y-97598269D01*
X148077495Y-97659956D01*
X148190763Y-97829474D01*
X148334926Y-97973637D01*
X148504444Y-98086905D01*
X148692802Y-98164926D01*
X148733393Y-98173000D01*
X145100000Y-98173000D01*
X145075224Y-98175440D01*
X145051399Y-98182667D01*
X145029443Y-98194403D01*
X145010197Y-98210197D01*
X144994403Y-98229443D01*
X144982667Y-98251399D01*
X144975440Y-98275224D01*
X144973000Y-98300000D01*
X144973000Y-100852198D01*
X144460199Y-101365000D01*
X144398061Y-101365000D01*
X144198102Y-101404774D01*
X144009744Y-101482795D01*
X143840226Y-101596063D01*
X143696063Y-101740226D01*
X143582795Y-101909744D01*
X143504774Y-102098102D01*
X143465000Y-102298061D01*
X135660000Y-102298061D01*
X135660000Y-87779872D01*
X135765000Y-87779872D01*
X135765000Y-88220128D01*
X135850890Y-88651925D01*
X136019369Y-89058669D01*
X136263962Y-89424729D01*
X136575271Y-89736038D01*
X136941331Y-89980631D01*
X137348075Y-90149110D01*
X137779872Y-90235000D01*
X138220128Y-90235000D01*
X138651925Y-90149110D01*
X139058669Y-89980631D01*
X139424729Y-89736038D01*
X139736038Y-89424729D01*
X139980631Y-89058669D01*
X140149110Y-88651925D01*
X140235000Y-88220128D01*
X140235000Y-87779872D01*
X154765000Y-87779872D01*
X154765000Y-88220128D01*
X154850890Y-88651925D01*
X155019369Y-89058669D01*
X155263962Y-89424729D01*
X155575271Y-89736038D01*
X155941331Y-89980631D01*
X156348075Y-90149110D01*
X156779872Y-90235000D01*
X157220128Y-90235000D01*
X157651925Y-90149110D01*
X158058669Y-89980631D01*
X158424729Y-89736038D01*
X158736038Y-89424729D01*
X158980631Y-89058669D01*
X159149110Y-88651925D01*
X159235000Y-88220128D01*
X159235000Y-87779872D01*
X159149110Y-87348075D01*
X158980631Y-86941331D01*
X158736038Y-86575271D01*
X158424729Y-86263962D01*
X158058669Y-86019369D01*
X157651925Y-85850890D01*
X157220128Y-85765000D01*
X156779872Y-85765000D01*
X156348075Y-85850890D01*
X155941331Y-86019369D01*
X155575271Y-86263962D01*
X155263962Y-86575271D01*
X155019369Y-86941331D01*
X154850890Y-87348075D01*
X154765000Y-87779872D01*
X140235000Y-87779872D01*
X140149110Y-87348075D01*
X139980631Y-86941331D01*
X139736038Y-86575271D01*
X139424729Y-86263962D01*
X139058669Y-86019369D01*
X138651925Y-85850890D01*
X138220128Y-85765000D01*
X137779872Y-85765000D01*
X137348075Y-85850890D01*
X136941331Y-86019369D01*
X136575271Y-86263962D01*
X136263962Y-86575271D01*
X136019369Y-86941331D01*
X135850890Y-87348075D01*
X135765000Y-87779872D01*
X135660000Y-87779872D01*
X135660000Y-86032279D01*
X135669580Y-85934576D01*
X135688580Y-85871644D01*
X135719445Y-85813595D01*
X135760989Y-85762657D01*
X135811644Y-85720752D01*
X135869471Y-85689485D01*
X135932272Y-85670044D01*
X136027835Y-85660000D01*
X158967721Y-85660000D01*
X159065424Y-85669580D01*
X159065424Y-85669580D01*
G37*
X159065424Y-85669580D02*
X159128356Y-85688580D01*
X159186405Y-85719445D01*
X159237343Y-85760989D01*
X159279248Y-85811644D01*
X159310515Y-85869471D01*
X159329956Y-85932272D01*
X159340001Y-86027845D01*
X159340000Y-113967721D01*
X159330420Y-114065424D01*
X159311420Y-114128357D01*
X159280554Y-114186406D01*
X159239011Y-114237343D01*
X159188356Y-114279248D01*
X159130529Y-114310515D01*
X159067728Y-114329956D01*
X158972165Y-114340000D01*
X136032279Y-114340000D01*
X135934576Y-114330420D01*
X135871643Y-114311420D01*
X135813594Y-114280554D01*
X135762657Y-114239011D01*
X135720752Y-114188356D01*
X135689485Y-114130529D01*
X135670044Y-114067728D01*
X135660000Y-113972165D01*
X135660000Y-111779872D01*
X135765000Y-111779872D01*
X135765000Y-112220128D01*
X135850890Y-112651925D01*
X136019369Y-113058669D01*
X136263962Y-113424729D01*
X136575271Y-113736038D01*
X136941331Y-113980631D01*
X137348075Y-114149110D01*
X137779872Y-114235000D01*
X138220128Y-114235000D01*
X138651925Y-114149110D01*
X139058669Y-113980631D01*
X139424729Y-113736038D01*
X139736038Y-113424729D01*
X139980631Y-113058669D01*
X140149110Y-112651925D01*
X140235000Y-112220128D01*
X140235000Y-111779872D01*
X154765000Y-111779872D01*
X154765000Y-112220128D01*
X154850890Y-112651925D01*
X155019369Y-113058669D01*
X155263962Y-113424729D01*
X155575271Y-113736038D01*
X155941331Y-113980631D01*
X156348075Y-114149110D01*
X156779872Y-114235000D01*
X157220128Y-114235000D01*
X157651925Y-114149110D01*
X158058669Y-113980631D01*
X158424729Y-113736038D01*
X158736038Y-113424729D01*
X158980631Y-113058669D01*
X159149110Y-112651925D01*
X159235000Y-112220128D01*
X159235000Y-111779872D01*
X159149110Y-111348075D01*
X158980631Y-110941331D01*
X158736038Y-110575271D01*
X158424729Y-110263962D01*
X158058669Y-110019369D01*
X157651925Y-109850890D01*
X157220128Y-109765000D01*
X156779872Y-109765000D01*
X156348075Y-109850890D01*
X155941331Y-110019369D01*
X155575271Y-110263962D01*
X155263962Y-110575271D01*
X155019369Y-110941331D01*
X154850890Y-111348075D01*
X154765000Y-111779872D01*
X140235000Y-111779872D01*
X140149110Y-111348075D01*
X139980631Y-110941331D01*
X139736038Y-110575271D01*
X139424729Y-110263962D01*
X139058669Y-110019369D01*
X138651925Y-109850890D01*
X138220128Y-109765000D01*
X137779872Y-109765000D01*
X137348075Y-109850890D01*
X136941331Y-110019369D01*
X136575271Y-110263962D01*
X136263962Y-110575271D01*
X136019369Y-110941331D01*
X135850890Y-111348075D01*
X135765000Y-111779872D01*
X135660000Y-111779872D01*
X135660000Y-108845752D01*
X143117986Y-108845752D01*
X143185071Y-109111378D01*
X143302688Y-109358812D01*
X143466317Y-109578546D01*
X143669670Y-109762135D01*
X143904932Y-109902524D01*
X144156930Y-109992220D01*
X144373000Y-109869720D01*
X144373000Y-108627000D01*
X143261251Y-108627000D01*
X143117986Y-108845752D01*
X135660000Y-108845752D01*
X135660000Y-108154248D01*
X143117986Y-108154248D01*
X143261251Y-108373000D01*
X144373000Y-108373000D01*
X144373000Y-107130280D01*
X144156930Y-107007780D01*
X143904932Y-107097476D01*
X143669670Y-107237865D01*
X143466317Y-107421454D01*
X143302688Y-107641188D01*
X143185071Y-107888622D01*
X143117986Y-108154248D01*
X135660000Y-108154248D01*
X135660000Y-102298061D01*
X143465000Y-102298061D01*
X143465000Y-102501939D01*
X143504774Y-102701898D01*
X143582795Y-102890256D01*
X143696063Y-103059774D01*
X143840226Y-103203937D01*
X144009744Y-103317205D01*
X144198102Y-103395226D01*
X144398061Y-103435000D01*
X144601939Y-103435000D01*
X144801898Y-103395226D01*
X144990256Y-103317205D01*
X145159774Y-103203937D01*
X145303937Y-103059774D01*
X145417205Y-102890256D01*
X145495226Y-102701898D01*
X145510124Y-102627000D01*
X149469985Y-102627000D01*
X149504774Y-102801898D01*
X149582795Y-102990256D01*
X149696063Y-103159774D01*
X149840226Y-103303937D01*
X150009744Y-103417205D01*
X150198102Y-103495226D01*
X150398061Y-103535000D01*
X150477100Y-103535000D01*
X150477100Y-105448098D01*
X148901320Y-107023879D01*
X148773860Y-106985214D01*
X148500000Y-106958241D01*
X148226141Y-106985214D01*
X147962806Y-107065096D01*
X147720114Y-107194817D01*
X147507393Y-107369392D01*
X147500000Y-107378400D01*
X147492608Y-107369392D01*
X147279887Y-107194817D01*
X147037195Y-107065096D01*
X146773860Y-106985214D01*
X146500000Y-106958241D01*
X146226141Y-106985214D01*
X145962806Y-107065096D01*
X145720114Y-107194817D01*
X145507393Y-107369392D01*
X145494039Y-107385663D01*
X145330330Y-107237865D01*
X145095068Y-107097476D01*
X144843070Y-107007780D01*
X144627000Y-107130280D01*
X144627000Y-108373000D01*
X144647000Y-108373000D01*
X144647000Y-108627000D01*
X144627000Y-108627000D01*
X144627000Y-109869720D01*
X144843070Y-109992220D01*
X145095068Y-109902524D01*
X145330330Y-109762135D01*
X145494039Y-109614337D01*
X145507392Y-109630607D01*
X145720113Y-109805183D01*
X145962805Y-109934904D01*
X146226140Y-110014786D01*
X146500000Y-110041759D01*
X146773859Y-110014786D01*
X147037194Y-109934904D01*
X147279886Y-109805183D01*
X147492607Y-109630608D01*
X147500000Y-109621600D01*
X147507392Y-109630607D01*
X147720113Y-109805183D01*
X147962805Y-109934904D01*
X148226140Y-110014786D01*
X148500000Y-110041759D01*
X148773859Y-110014786D01*
X149037194Y-109934904D01*
X149279886Y-109805183D01*
X149492607Y-109630608D01*
X149500000Y-109621600D01*
X149507392Y-109630607D01*
X149720113Y-109805183D01*
X149962805Y-109934904D01*
X150226140Y-110014786D01*
X150500000Y-110041759D01*
X150773859Y-110014786D01*
X151037194Y-109934904D01*
X151279886Y-109805183D01*
X151492607Y-109630608D01*
X151667183Y-109417887D01*
X151796904Y-109175195D01*
X151876786Y-108911860D01*
X151897000Y-108706625D01*
X151897000Y-108293376D01*
X151876786Y-108088141D01*
X151796904Y-107824806D01*
X151667183Y-107582113D01*
X151492608Y-107369392D01*
X151279887Y-107194817D01*
X151037195Y-107065096D01*
X151016104Y-107058698D01*
X151748104Y-106326698D01*
X151777101Y-106302901D01*
X151803432Y-106270817D01*
X151872074Y-106187177D01*
X151942646Y-106055147D01*
X151942646Y-106055146D01*
X151986103Y-105911886D01*
X151997100Y-105800233D01*
X151997100Y-105800223D01*
X152000776Y-105762900D01*
X151997100Y-105725577D01*
X151997100Y-92716425D01*
X152000776Y-92679100D01*
X151997100Y-92641775D01*
X151997100Y-92641767D01*
X151986103Y-92530114D01*
X151942646Y-92386853D01*
X151872074Y-92254824D01*
X151777101Y-92139099D01*
X151748103Y-92115301D01*
X150210500Y-90577699D01*
X150210500Y-90515561D01*
X150170726Y-90315602D01*
X150092705Y-90127244D01*
X149979437Y-89957726D01*
X149835274Y-89813563D01*
X149665756Y-89700295D01*
X149477398Y-89622274D01*
X149277439Y-89582500D01*
X149073561Y-89582500D01*
X148873602Y-89622274D01*
X148685244Y-89700295D01*
X148515726Y-89813563D01*
X148371563Y-89957726D01*
X148258295Y-90127244D01*
X148180274Y-90315602D01*
X148140500Y-90515561D01*
X148140500Y-90719439D01*
X148160733Y-90821156D01*
X148083137Y-90705026D01*
X147938974Y-90560863D01*
X147769456Y-90447595D01*
X147581098Y-90369574D01*
X147381139Y-90329800D01*
X147177261Y-90329800D01*
X146977302Y-90369574D01*
X146788944Y-90447595D01*
X146619426Y-90560863D01*
X146475263Y-90705026D01*
X146361995Y-90874544D01*
X146283974Y-91062902D01*
X146244200Y-91262861D01*
X146244200Y-91466739D01*
X146283974Y-91666698D01*
X146361995Y-91855056D01*
X146475263Y-92024574D01*
X146519200Y-92068511D01*
X146519201Y-96242738D01*
X146513326Y-96246663D01*
X146369163Y-96390826D01*
X146255895Y-96560344D01*
X146177874Y-96748702D01*
X146138100Y-96948661D01*
X146138100Y-97152539D01*
X146177874Y-97352498D01*
X146255895Y-97540856D01*
X146369163Y-97710374D01*
X146513326Y-97854537D01*
X146682844Y-97967805D01*
X146871202Y-98045826D01*
X147071161Y-98085600D01*
X147275039Y-98085600D01*
X147474998Y-98045826D01*
X147663356Y-97967805D01*
X147832874Y-97854537D01*
X147977037Y-97710374D01*
X148051943Y-97598269D01*
X148077495Y-97659956D01*
X148190763Y-97829474D01*
X148334926Y-97973637D01*
X148504444Y-98086905D01*
X148692802Y-98164926D01*
X148733393Y-98173000D01*
X145100000Y-98173000D01*
X145075224Y-98175440D01*
X145051399Y-98182667D01*
X145029443Y-98194403D01*
X145010197Y-98210197D01*
X144994403Y-98229443D01*
X144982667Y-98251399D01*
X144975440Y-98275224D01*
X144973000Y-98300000D01*
X144973000Y-100852198D01*
X144460199Y-101365000D01*
X144398061Y-101365000D01*
X144198102Y-101404774D01*
X144009744Y-101482795D01*
X143840226Y-101596063D01*
X143696063Y-101740226D01*
X143582795Y-101909744D01*
X143504774Y-102098102D01*
X143465000Y-102298061D01*
X135660000Y-102298061D01*
X135660000Y-87779872D01*
X135765000Y-87779872D01*
X135765000Y-88220128D01*
X135850890Y-88651925D01*
X136019369Y-89058669D01*
X136263962Y-89424729D01*
X136575271Y-89736038D01*
X136941331Y-89980631D01*
X137348075Y-90149110D01*
X137779872Y-90235000D01*
X138220128Y-90235000D01*
X138651925Y-90149110D01*
X139058669Y-89980631D01*
X139424729Y-89736038D01*
X139736038Y-89424729D01*
X139980631Y-89058669D01*
X140149110Y-88651925D01*
X140235000Y-88220128D01*
X140235000Y-87779872D01*
X154765000Y-87779872D01*
X154765000Y-88220128D01*
X154850890Y-88651925D01*
X155019369Y-89058669D01*
X155263962Y-89424729D01*
X155575271Y-89736038D01*
X155941331Y-89980631D01*
X156348075Y-90149110D01*
X156779872Y-90235000D01*
X157220128Y-90235000D01*
X157651925Y-90149110D01*
X158058669Y-89980631D01*
X158424729Y-89736038D01*
X158736038Y-89424729D01*
X158980631Y-89058669D01*
X159149110Y-88651925D01*
X159235000Y-88220128D01*
X159235000Y-87779872D01*
X159149110Y-87348075D01*
X158980631Y-86941331D01*
X158736038Y-86575271D01*
X158424729Y-86263962D01*
X158058669Y-86019369D01*
X157651925Y-85850890D01*
X157220128Y-85765000D01*
X156779872Y-85765000D01*
X156348075Y-85850890D01*
X155941331Y-86019369D01*
X155575271Y-86263962D01*
X155263962Y-86575271D01*
X155019369Y-86941331D01*
X154850890Y-87348075D01*
X154765000Y-87779872D01*
X140235000Y-87779872D01*
X140149110Y-87348075D01*
X139980631Y-86941331D01*
X139736038Y-86575271D01*
X139424729Y-86263962D01*
X139058669Y-86019369D01*
X138651925Y-85850890D01*
X138220128Y-85765000D01*
X137779872Y-85765000D01*
X137348075Y-85850890D01*
X136941331Y-86019369D01*
X136575271Y-86263962D01*
X136263962Y-86575271D01*
X136019369Y-86941331D01*
X135850890Y-87348075D01*
X135765000Y-87779872D01*
X135660000Y-87779872D01*
X135660000Y-86032279D01*
X135669580Y-85934576D01*
X135688580Y-85871644D01*
X135719445Y-85813595D01*
X135760989Y-85762657D01*
X135811644Y-85720752D01*
X135869471Y-85689485D01*
X135932272Y-85670044D01*
X136027835Y-85660000D01*
X158967721Y-85660000D01*
X159065424Y-85669580D01*
M02*
