G04 #@! TF.GenerationSoftware,KiCad,Pcbnew,(5.1.2)-1*
G04 #@! TF.CreationDate,2021-06-27T22:03:38+09:00*
G04 #@! TF.ProjectId,ls,6c732e6b-6963-4616-945f-706362585858,v1.0*
G04 #@! TF.SameCoordinates,Original*
G04 #@! TF.FileFunction,Soldermask,Top*
G04 #@! TF.FilePolarity,Negative*
%FSLAX46Y46*%
G04 Gerber Fmt 4.6, Leading zero omitted, Abs format (unit mm)*
G04 Created by KiCad (PCBNEW (5.1.2)-1) date 2021-06-27 22:03:38*
%MOMM*%
%LPD*%
G04 APERTURE LIST*
%ADD10C,0.100000*%
G04 APERTURE END LIST*
D10*
G36*
X157375256Y-110391298D02*
G01*
X157481579Y-110412447D01*
X157782042Y-110536903D01*
X158052451Y-110717585D01*
X158282415Y-110947549D01*
X158463097Y-111217958D01*
X158587553Y-111518421D01*
X158651000Y-111837391D01*
X158651000Y-112162609D01*
X158587553Y-112481579D01*
X158463097Y-112782042D01*
X158282415Y-113052451D01*
X158052451Y-113282415D01*
X157782042Y-113463097D01*
X157481579Y-113587553D01*
X157375256Y-113608702D01*
X157162611Y-113651000D01*
X156837389Y-113651000D01*
X156624744Y-113608702D01*
X156518421Y-113587553D01*
X156217958Y-113463097D01*
X155947549Y-113282415D01*
X155717585Y-113052451D01*
X155536903Y-112782042D01*
X155412447Y-112481579D01*
X155349000Y-112162609D01*
X155349000Y-111837391D01*
X155412447Y-111518421D01*
X155536903Y-111217958D01*
X155717585Y-110947549D01*
X155947549Y-110717585D01*
X156217958Y-110536903D01*
X156518421Y-110412447D01*
X156624744Y-110391298D01*
X156837389Y-110349000D01*
X157162611Y-110349000D01*
X157375256Y-110391298D01*
X157375256Y-110391298D01*
G37*
G36*
X138375256Y-110391298D02*
G01*
X138481579Y-110412447D01*
X138782042Y-110536903D01*
X139052451Y-110717585D01*
X139282415Y-110947549D01*
X139463097Y-111217958D01*
X139587553Y-111518421D01*
X139651000Y-111837391D01*
X139651000Y-112162609D01*
X139587553Y-112481579D01*
X139463097Y-112782042D01*
X139282415Y-113052451D01*
X139052451Y-113282415D01*
X138782042Y-113463097D01*
X138481579Y-113587553D01*
X138375256Y-113608702D01*
X138162611Y-113651000D01*
X137837389Y-113651000D01*
X137624744Y-113608702D01*
X137518421Y-113587553D01*
X137217958Y-113463097D01*
X136947549Y-113282415D01*
X136717585Y-113052451D01*
X136536903Y-112782042D01*
X136412447Y-112481579D01*
X136349000Y-112162609D01*
X136349000Y-111837391D01*
X136412447Y-111518421D01*
X136536903Y-111217958D01*
X136717585Y-110947549D01*
X136947549Y-110717585D01*
X137217958Y-110536903D01*
X137518421Y-110412447D01*
X137624744Y-110391298D01*
X137837389Y-110349000D01*
X138162611Y-110349000D01*
X138375256Y-110391298D01*
X138375256Y-110391298D01*
G37*
G36*
X144659376Y-107560764D02*
G01*
X144812627Y-107607252D01*
X144812630Y-107607253D01*
X144953863Y-107682744D01*
X145077659Y-107784341D01*
X145179256Y-107908137D01*
X145254747Y-108049370D01*
X145254748Y-108049373D01*
X145301236Y-108202625D01*
X145313000Y-108322068D01*
X145313000Y-108677933D01*
X145301236Y-108797376D01*
X145254748Y-108950626D01*
X145254747Y-108950630D01*
X145179256Y-109091863D01*
X145077659Y-109215659D01*
X144953863Y-109317256D01*
X144812629Y-109392747D01*
X144812626Y-109392748D01*
X144659375Y-109439236D01*
X144500000Y-109454933D01*
X144340624Y-109439236D01*
X144187373Y-109392748D01*
X144187370Y-109392747D01*
X144046137Y-109317256D01*
X143922341Y-109215659D01*
X143820744Y-109091863D01*
X143745253Y-108950629D01*
X143745252Y-108950626D01*
X143698764Y-108797375D01*
X143687000Y-108677932D01*
X143687000Y-108322067D01*
X143698764Y-108202624D01*
X143745252Y-108049373D01*
X143745253Y-108049370D01*
X143820744Y-107908137D01*
X143922341Y-107784341D01*
X144046137Y-107682744D01*
X144187371Y-107607253D01*
X144187374Y-107607252D01*
X144340625Y-107560764D01*
X144500000Y-107545067D01*
X144659376Y-107560764D01*
X144659376Y-107560764D01*
G37*
G36*
X146659376Y-107560764D02*
G01*
X146812627Y-107607252D01*
X146812630Y-107607253D01*
X146953863Y-107682744D01*
X147077659Y-107784341D01*
X147179256Y-107908137D01*
X147254747Y-108049370D01*
X147254748Y-108049373D01*
X147301236Y-108202625D01*
X147313000Y-108322068D01*
X147313000Y-108677933D01*
X147301236Y-108797376D01*
X147254748Y-108950626D01*
X147254747Y-108950630D01*
X147179256Y-109091863D01*
X147077659Y-109215659D01*
X146953863Y-109317256D01*
X146812629Y-109392747D01*
X146812626Y-109392748D01*
X146659375Y-109439236D01*
X146500000Y-109454933D01*
X146340624Y-109439236D01*
X146187373Y-109392748D01*
X146187370Y-109392747D01*
X146046137Y-109317256D01*
X145922341Y-109215659D01*
X145820744Y-109091863D01*
X145745253Y-108950629D01*
X145745252Y-108950626D01*
X145698764Y-108797375D01*
X145687000Y-108677932D01*
X145687000Y-108322067D01*
X145698764Y-108202624D01*
X145745252Y-108049373D01*
X145745253Y-108049370D01*
X145820744Y-107908137D01*
X145922341Y-107784341D01*
X146046137Y-107682744D01*
X146187371Y-107607253D01*
X146187374Y-107607252D01*
X146340625Y-107560764D01*
X146500000Y-107545067D01*
X146659376Y-107560764D01*
X146659376Y-107560764D01*
G37*
G36*
X150659376Y-107560764D02*
G01*
X150812627Y-107607252D01*
X150812630Y-107607253D01*
X150953863Y-107682744D01*
X151077659Y-107784341D01*
X151179256Y-107908137D01*
X151254747Y-108049370D01*
X151254748Y-108049373D01*
X151301236Y-108202625D01*
X151313000Y-108322068D01*
X151313000Y-108677933D01*
X151301236Y-108797376D01*
X151254748Y-108950626D01*
X151254747Y-108950630D01*
X151179256Y-109091863D01*
X151077659Y-109215659D01*
X150953863Y-109317256D01*
X150812629Y-109392747D01*
X150812626Y-109392748D01*
X150659375Y-109439236D01*
X150500000Y-109454933D01*
X150340624Y-109439236D01*
X150187373Y-109392748D01*
X150187370Y-109392747D01*
X150046137Y-109317256D01*
X149922341Y-109215659D01*
X149820744Y-109091863D01*
X149745253Y-108950629D01*
X149745252Y-108950626D01*
X149698764Y-108797375D01*
X149687000Y-108677932D01*
X149687000Y-108322067D01*
X149698764Y-108202624D01*
X149745252Y-108049373D01*
X149745253Y-108049370D01*
X149820744Y-107908137D01*
X149922341Y-107784341D01*
X150046137Y-107682744D01*
X150187371Y-107607253D01*
X150187374Y-107607252D01*
X150340625Y-107560764D01*
X150500000Y-107545067D01*
X150659376Y-107560764D01*
X150659376Y-107560764D01*
G37*
G36*
X148659376Y-107560764D02*
G01*
X148812627Y-107607252D01*
X148812630Y-107607253D01*
X148953863Y-107682744D01*
X149077659Y-107784341D01*
X149179256Y-107908137D01*
X149254747Y-108049370D01*
X149254748Y-108049373D01*
X149301236Y-108202625D01*
X149313000Y-108322068D01*
X149313000Y-108677933D01*
X149301236Y-108797376D01*
X149254748Y-108950626D01*
X149254747Y-108950630D01*
X149179256Y-109091863D01*
X149077659Y-109215659D01*
X148953863Y-109317256D01*
X148812629Y-109392747D01*
X148812626Y-109392748D01*
X148659375Y-109439236D01*
X148500000Y-109454933D01*
X148340624Y-109439236D01*
X148187373Y-109392748D01*
X148187370Y-109392747D01*
X148046137Y-109317256D01*
X147922341Y-109215659D01*
X147820744Y-109091863D01*
X147745253Y-108950629D01*
X147745252Y-108950626D01*
X147698764Y-108797375D01*
X147687000Y-108677932D01*
X147687000Y-108322067D01*
X147698764Y-108202624D01*
X147745252Y-108049373D01*
X147745253Y-108049370D01*
X147820744Y-107908137D01*
X147922341Y-107784341D01*
X148046137Y-107682744D01*
X148187371Y-107607253D01*
X148187374Y-107607252D01*
X148340625Y-107560764D01*
X148500000Y-107545067D01*
X148659376Y-107560764D01*
X148659376Y-107560764D01*
G37*
G36*
X144666591Y-103578085D02*
G01*
X144700569Y-103588393D01*
X144731890Y-103605134D01*
X144759339Y-103627661D01*
X144781866Y-103655110D01*
X144798607Y-103686431D01*
X144808915Y-103720409D01*
X144813000Y-103761890D01*
X144813000Y-104438110D01*
X144808915Y-104479591D01*
X144798607Y-104513569D01*
X144781866Y-104544890D01*
X144759339Y-104572339D01*
X144731890Y-104594866D01*
X144700569Y-104611607D01*
X144666591Y-104621915D01*
X144625110Y-104626000D01*
X144023890Y-104626000D01*
X143982409Y-104621915D01*
X143948431Y-104611607D01*
X143917110Y-104594866D01*
X143889661Y-104572339D01*
X143867134Y-104544890D01*
X143850393Y-104513569D01*
X143840085Y-104479591D01*
X143836000Y-104438110D01*
X143836000Y-103761890D01*
X143840085Y-103720409D01*
X143850393Y-103686431D01*
X143867134Y-103655110D01*
X143889661Y-103627661D01*
X143917110Y-103605134D01*
X143948431Y-103588393D01*
X143982409Y-103578085D01*
X144023890Y-103574000D01*
X144625110Y-103574000D01*
X144666591Y-103578085D01*
X144666591Y-103578085D01*
G37*
G36*
X146241591Y-103578085D02*
G01*
X146275569Y-103588393D01*
X146306890Y-103605134D01*
X146334339Y-103627661D01*
X146356866Y-103655110D01*
X146373607Y-103686431D01*
X146383915Y-103720409D01*
X146388000Y-103761890D01*
X146388000Y-104438110D01*
X146383915Y-104479591D01*
X146373607Y-104513569D01*
X146356866Y-104544890D01*
X146334339Y-104572339D01*
X146306890Y-104594866D01*
X146275569Y-104611607D01*
X146241591Y-104621915D01*
X146200110Y-104626000D01*
X145598890Y-104626000D01*
X145557409Y-104621915D01*
X145523431Y-104611607D01*
X145492110Y-104594866D01*
X145464661Y-104572339D01*
X145442134Y-104544890D01*
X145425393Y-104513569D01*
X145415085Y-104479591D01*
X145411000Y-104438110D01*
X145411000Y-103761890D01*
X145415085Y-103720409D01*
X145425393Y-103686431D01*
X145442134Y-103655110D01*
X145464661Y-103627661D01*
X145492110Y-103605134D01*
X145523431Y-103588393D01*
X145557409Y-103578085D01*
X145598890Y-103574000D01*
X146200110Y-103574000D01*
X146241591Y-103578085D01*
X146241591Y-103578085D01*
G37*
G36*
X149266591Y-103578085D02*
G01*
X149300569Y-103588393D01*
X149331890Y-103605134D01*
X149359339Y-103627661D01*
X149381866Y-103655110D01*
X149398607Y-103686431D01*
X149408915Y-103720409D01*
X149413000Y-103761890D01*
X149413000Y-104438110D01*
X149408915Y-104479591D01*
X149398607Y-104513569D01*
X149381866Y-104544890D01*
X149359339Y-104572339D01*
X149331890Y-104594866D01*
X149300569Y-104611607D01*
X149266591Y-104621915D01*
X149225110Y-104626000D01*
X148623890Y-104626000D01*
X148582409Y-104621915D01*
X148548431Y-104611607D01*
X148517110Y-104594866D01*
X148489661Y-104572339D01*
X148467134Y-104544890D01*
X148450393Y-104513569D01*
X148440085Y-104479591D01*
X148436000Y-104438110D01*
X148436000Y-103761890D01*
X148440085Y-103720409D01*
X148450393Y-103686431D01*
X148467134Y-103655110D01*
X148489661Y-103627661D01*
X148517110Y-103605134D01*
X148548431Y-103588393D01*
X148582409Y-103578085D01*
X148623890Y-103574000D01*
X149225110Y-103574000D01*
X149266591Y-103578085D01*
X149266591Y-103578085D01*
G37*
G36*
X150841591Y-103578085D02*
G01*
X150875569Y-103588393D01*
X150906890Y-103605134D01*
X150934339Y-103627661D01*
X150956866Y-103655110D01*
X150973607Y-103686431D01*
X150983915Y-103720409D01*
X150988000Y-103761890D01*
X150988000Y-104438110D01*
X150983915Y-104479591D01*
X150973607Y-104513569D01*
X150956866Y-104544890D01*
X150934339Y-104572339D01*
X150906890Y-104594866D01*
X150875569Y-104611607D01*
X150841591Y-104621915D01*
X150800110Y-104626000D01*
X150198890Y-104626000D01*
X150157409Y-104621915D01*
X150123431Y-104611607D01*
X150092110Y-104594866D01*
X150064661Y-104572339D01*
X150042134Y-104544890D01*
X150025393Y-104513569D01*
X150015085Y-104479591D01*
X150011000Y-104438110D01*
X150011000Y-103761890D01*
X150015085Y-103720409D01*
X150025393Y-103686431D01*
X150042134Y-103655110D01*
X150064661Y-103627661D01*
X150092110Y-103605134D01*
X150123431Y-103588393D01*
X150157409Y-103578085D01*
X150198890Y-103574000D01*
X150800110Y-103574000D01*
X150841591Y-103578085D01*
X150841591Y-103578085D01*
G37*
G36*
X141148050Y-103200550D02*
G01*
X139748110Y-103200550D01*
X139748110Y-101699010D01*
X141148050Y-101699010D01*
X141148050Y-103200550D01*
X141148050Y-103200550D01*
G37*
G36*
X138851890Y-103200550D02*
G01*
X137451950Y-103200550D01*
X137451950Y-101699010D01*
X138851890Y-101699010D01*
X138851890Y-103200550D01*
X138851890Y-103200550D01*
G37*
G36*
X157548050Y-103100550D02*
G01*
X156148110Y-103100550D01*
X156148110Y-101599010D01*
X157548050Y-101599010D01*
X157548050Y-103100550D01*
X157548050Y-103100550D01*
G37*
G36*
X155251890Y-103100550D02*
G01*
X153851950Y-103100550D01*
X153851950Y-101599010D01*
X155251890Y-101599010D01*
X155251890Y-103100550D01*
X155251890Y-103100550D01*
G37*
G36*
X150879591Y-100803085D02*
G01*
X150913569Y-100813393D01*
X150944890Y-100830134D01*
X150972339Y-100852661D01*
X150994866Y-100880110D01*
X151011607Y-100911431D01*
X151021915Y-100945409D01*
X151026000Y-100986890D01*
X151026000Y-101588110D01*
X151021915Y-101629591D01*
X151011607Y-101663569D01*
X150994866Y-101694890D01*
X150972339Y-101722339D01*
X150944890Y-101744866D01*
X150913569Y-101761607D01*
X150879591Y-101771915D01*
X150838110Y-101776000D01*
X150161890Y-101776000D01*
X150120409Y-101771915D01*
X150086431Y-101761607D01*
X150055110Y-101744866D01*
X150027661Y-101722339D01*
X150005134Y-101694890D01*
X149988393Y-101663569D01*
X149978085Y-101629591D01*
X149974000Y-101588110D01*
X149974000Y-100986890D01*
X149978085Y-100945409D01*
X149988393Y-100911431D01*
X150005134Y-100880110D01*
X150027661Y-100852661D01*
X150055110Y-100830134D01*
X150086431Y-100813393D01*
X150120409Y-100803085D01*
X150161890Y-100799000D01*
X150838110Y-100799000D01*
X150879591Y-100803085D01*
X150879591Y-100803085D01*
G37*
G36*
X144779591Y-100691085D02*
G01*
X144813569Y-100701393D01*
X144844890Y-100718134D01*
X144872339Y-100740661D01*
X144894866Y-100768110D01*
X144911607Y-100799431D01*
X144921915Y-100833409D01*
X144926000Y-100874890D01*
X144926000Y-101476110D01*
X144921915Y-101517591D01*
X144911607Y-101551569D01*
X144894866Y-101582890D01*
X144872339Y-101610339D01*
X144844890Y-101632866D01*
X144813569Y-101649607D01*
X144779591Y-101659915D01*
X144738110Y-101664000D01*
X144061890Y-101664000D01*
X144020409Y-101659915D01*
X143986431Y-101649607D01*
X143955110Y-101632866D01*
X143927661Y-101610339D01*
X143905134Y-101582890D01*
X143888393Y-101551569D01*
X143878085Y-101517591D01*
X143874000Y-101476110D01*
X143874000Y-100874890D01*
X143878085Y-100833409D01*
X143888393Y-100799431D01*
X143905134Y-100768110D01*
X143927661Y-100740661D01*
X143955110Y-100718134D01*
X143986431Y-100701393D01*
X144020409Y-100691085D01*
X144061890Y-100687000D01*
X144738110Y-100687000D01*
X144779591Y-100691085D01*
X144779591Y-100691085D01*
G37*
G36*
X150879591Y-99228085D02*
G01*
X150913569Y-99238393D01*
X150944890Y-99255134D01*
X150972339Y-99277661D01*
X150994866Y-99305110D01*
X151011607Y-99336431D01*
X151021915Y-99370409D01*
X151026000Y-99411890D01*
X151026000Y-100013110D01*
X151021915Y-100054591D01*
X151011607Y-100088569D01*
X150994866Y-100119890D01*
X150972339Y-100147339D01*
X150944890Y-100169866D01*
X150913569Y-100186607D01*
X150879591Y-100196915D01*
X150838110Y-100201000D01*
X150161890Y-100201000D01*
X150120409Y-100196915D01*
X150086431Y-100186607D01*
X150055110Y-100169866D01*
X150027661Y-100147339D01*
X150005134Y-100119890D01*
X149988393Y-100088569D01*
X149978085Y-100054591D01*
X149974000Y-100013110D01*
X149974000Y-99411890D01*
X149978085Y-99370409D01*
X149988393Y-99336431D01*
X150005134Y-99305110D01*
X150027661Y-99277661D01*
X150055110Y-99255134D01*
X150086431Y-99238393D01*
X150120409Y-99228085D01*
X150161890Y-99224000D01*
X150838110Y-99224000D01*
X150879591Y-99228085D01*
X150879591Y-99228085D01*
G37*
G36*
X144779591Y-99116085D02*
G01*
X144813569Y-99126393D01*
X144844890Y-99143134D01*
X144872339Y-99165661D01*
X144894866Y-99193110D01*
X144911607Y-99224431D01*
X144921915Y-99258409D01*
X144926000Y-99299890D01*
X144926000Y-99901110D01*
X144921915Y-99942591D01*
X144911607Y-99976569D01*
X144894866Y-100007890D01*
X144872339Y-100035339D01*
X144844890Y-100057866D01*
X144813569Y-100074607D01*
X144779591Y-100084915D01*
X144738110Y-100089000D01*
X144061890Y-100089000D01*
X144020409Y-100084915D01*
X143986431Y-100074607D01*
X143955110Y-100057866D01*
X143927661Y-100035339D01*
X143905134Y-100007890D01*
X143888393Y-99976569D01*
X143878085Y-99942591D01*
X143874000Y-99901110D01*
X143874000Y-99299890D01*
X143878085Y-99258409D01*
X143888393Y-99224431D01*
X143905134Y-99193110D01*
X143927661Y-99165661D01*
X143955110Y-99143134D01*
X143986431Y-99126393D01*
X144020409Y-99116085D01*
X144061890Y-99112000D01*
X144738110Y-99112000D01*
X144779591Y-99116085D01*
X144779591Y-99116085D01*
G37*
G36*
X140500350Y-99401980D02*
G01*
X138099650Y-99401980D01*
X138099650Y-97801380D01*
X140500350Y-97801380D01*
X140500350Y-99401980D01*
X140500350Y-99401980D01*
G37*
G36*
X156900350Y-99301980D02*
G01*
X154499650Y-99301980D01*
X154499650Y-97701380D01*
X156900350Y-97701380D01*
X156900350Y-99301980D01*
X156900350Y-99301980D01*
G37*
G36*
X140541591Y-96078085D02*
G01*
X140575569Y-96088393D01*
X140606890Y-96105134D01*
X140634339Y-96127661D01*
X140656866Y-96155110D01*
X140673607Y-96186431D01*
X140683915Y-96220409D01*
X140688000Y-96261890D01*
X140688000Y-96938110D01*
X140683915Y-96979591D01*
X140673607Y-97013569D01*
X140656866Y-97044890D01*
X140634339Y-97072339D01*
X140606890Y-97094866D01*
X140575569Y-97111607D01*
X140541591Y-97121915D01*
X140500110Y-97126000D01*
X139898890Y-97126000D01*
X139857409Y-97121915D01*
X139823431Y-97111607D01*
X139792110Y-97094866D01*
X139764661Y-97072339D01*
X139742134Y-97044890D01*
X139725393Y-97013569D01*
X139715085Y-96979591D01*
X139711000Y-96938110D01*
X139711000Y-96261890D01*
X139715085Y-96220409D01*
X139725393Y-96186431D01*
X139742134Y-96155110D01*
X139764661Y-96127661D01*
X139792110Y-96105134D01*
X139823431Y-96088393D01*
X139857409Y-96078085D01*
X139898890Y-96074000D01*
X140500110Y-96074000D01*
X140541591Y-96078085D01*
X140541591Y-96078085D01*
G37*
G36*
X138966591Y-96078085D02*
G01*
X139000569Y-96088393D01*
X139031890Y-96105134D01*
X139059339Y-96127661D01*
X139081866Y-96155110D01*
X139098607Y-96186431D01*
X139108915Y-96220409D01*
X139113000Y-96261890D01*
X139113000Y-96938110D01*
X139108915Y-96979591D01*
X139098607Y-97013569D01*
X139081866Y-97044890D01*
X139059339Y-97072339D01*
X139031890Y-97094866D01*
X139000569Y-97111607D01*
X138966591Y-97121915D01*
X138925110Y-97126000D01*
X138323890Y-97126000D01*
X138282409Y-97121915D01*
X138248431Y-97111607D01*
X138217110Y-97094866D01*
X138189661Y-97072339D01*
X138167134Y-97044890D01*
X138150393Y-97013569D01*
X138140085Y-96979591D01*
X138136000Y-96938110D01*
X138136000Y-96261890D01*
X138140085Y-96220409D01*
X138150393Y-96186431D01*
X138167134Y-96155110D01*
X138189661Y-96127661D01*
X138217110Y-96105134D01*
X138248431Y-96088393D01*
X138282409Y-96078085D01*
X138323890Y-96074000D01*
X138925110Y-96074000D01*
X138966591Y-96078085D01*
X138966591Y-96078085D01*
G37*
G36*
X144879591Y-96103085D02*
G01*
X144913569Y-96113393D01*
X144944890Y-96130134D01*
X144972339Y-96152661D01*
X144994866Y-96180110D01*
X145011607Y-96211431D01*
X145021915Y-96245409D01*
X145026000Y-96286890D01*
X145026000Y-96888110D01*
X145021915Y-96929591D01*
X145011607Y-96963569D01*
X144994866Y-96994890D01*
X144972339Y-97022339D01*
X144944890Y-97044866D01*
X144913569Y-97061607D01*
X144879591Y-97071915D01*
X144838110Y-97076000D01*
X144161890Y-97076000D01*
X144120409Y-97071915D01*
X144086431Y-97061607D01*
X144055110Y-97044866D01*
X144027661Y-97022339D01*
X144005134Y-96994890D01*
X143988393Y-96963569D01*
X143978085Y-96929591D01*
X143974000Y-96888110D01*
X143974000Y-96286890D01*
X143978085Y-96245409D01*
X143988393Y-96211431D01*
X144005134Y-96180110D01*
X144027661Y-96152661D01*
X144055110Y-96130134D01*
X144086431Y-96113393D01*
X144120409Y-96103085D01*
X144161890Y-96099000D01*
X144838110Y-96099000D01*
X144879591Y-96103085D01*
X144879591Y-96103085D01*
G37*
G36*
X150479591Y-96090585D02*
G01*
X150513569Y-96100893D01*
X150544890Y-96117634D01*
X150572339Y-96140161D01*
X150594866Y-96167610D01*
X150611607Y-96198931D01*
X150621915Y-96232909D01*
X150626000Y-96274390D01*
X150626000Y-96875610D01*
X150621915Y-96917091D01*
X150611607Y-96951069D01*
X150594866Y-96982390D01*
X150572339Y-97009839D01*
X150544890Y-97032366D01*
X150513569Y-97049107D01*
X150479591Y-97059415D01*
X150438110Y-97063500D01*
X149761890Y-97063500D01*
X149720409Y-97059415D01*
X149686431Y-97049107D01*
X149655110Y-97032366D01*
X149627661Y-97009839D01*
X149605134Y-96982390D01*
X149588393Y-96951069D01*
X149578085Y-96917091D01*
X149574000Y-96875610D01*
X149574000Y-96274390D01*
X149578085Y-96232909D01*
X149588393Y-96198931D01*
X149605134Y-96167610D01*
X149627661Y-96140161D01*
X149655110Y-96117634D01*
X149686431Y-96100893D01*
X149720409Y-96090585D01*
X149761890Y-96086500D01*
X150438110Y-96086500D01*
X150479591Y-96090585D01*
X150479591Y-96090585D01*
G37*
G36*
X146726000Y-96701000D02*
G01*
X145974000Y-96701000D01*
X145974000Y-96199000D01*
X146726000Y-96199000D01*
X146726000Y-96701000D01*
X146726000Y-96701000D01*
G37*
G36*
X148626000Y-96701000D02*
G01*
X147874000Y-96701000D01*
X147874000Y-94899000D01*
X148626000Y-94899000D01*
X148626000Y-96701000D01*
X148626000Y-96701000D01*
G37*
G36*
X144879591Y-94528085D02*
G01*
X144913569Y-94538393D01*
X144944890Y-94555134D01*
X144972339Y-94577661D01*
X144994866Y-94605110D01*
X145011607Y-94636431D01*
X145021915Y-94670409D01*
X145026000Y-94711890D01*
X145026000Y-95313110D01*
X145021915Y-95354591D01*
X145011607Y-95388569D01*
X144994866Y-95419890D01*
X144972339Y-95447339D01*
X144944890Y-95469866D01*
X144913569Y-95486607D01*
X144879591Y-95496915D01*
X144838110Y-95501000D01*
X144161890Y-95501000D01*
X144120409Y-95496915D01*
X144086431Y-95486607D01*
X144055110Y-95469866D01*
X144027661Y-95447339D01*
X144005134Y-95419890D01*
X143988393Y-95388569D01*
X143978085Y-95354591D01*
X143974000Y-95313110D01*
X143974000Y-94711890D01*
X143978085Y-94670409D01*
X143988393Y-94636431D01*
X144005134Y-94605110D01*
X144027661Y-94577661D01*
X144055110Y-94555134D01*
X144086431Y-94538393D01*
X144120409Y-94528085D01*
X144161890Y-94524000D01*
X144838110Y-94524000D01*
X144879591Y-94528085D01*
X144879591Y-94528085D01*
G37*
G36*
X150479591Y-94515585D02*
G01*
X150513569Y-94525893D01*
X150544890Y-94542634D01*
X150572339Y-94565161D01*
X150594866Y-94592610D01*
X150611607Y-94623931D01*
X150621915Y-94657909D01*
X150626000Y-94699390D01*
X150626000Y-95300610D01*
X150621915Y-95342091D01*
X150611607Y-95376069D01*
X150594866Y-95407390D01*
X150572339Y-95434839D01*
X150544890Y-95457366D01*
X150513569Y-95474107D01*
X150479591Y-95484415D01*
X150438110Y-95488500D01*
X149761890Y-95488500D01*
X149720409Y-95484415D01*
X149686431Y-95474107D01*
X149655110Y-95457366D01*
X149627661Y-95434839D01*
X149605134Y-95407390D01*
X149588393Y-95376069D01*
X149578085Y-95342091D01*
X149574000Y-95300610D01*
X149574000Y-94699390D01*
X149578085Y-94657909D01*
X149588393Y-94623931D01*
X149605134Y-94592610D01*
X149627661Y-94565161D01*
X149655110Y-94542634D01*
X149686431Y-94525893D01*
X149720409Y-94515585D01*
X149761890Y-94511500D01*
X150438110Y-94511500D01*
X150479591Y-94515585D01*
X150479591Y-94515585D01*
G37*
G36*
X146726000Y-95401000D02*
G01*
X145974000Y-95401000D01*
X145974000Y-94899000D01*
X146726000Y-94899000D01*
X146726000Y-95401000D01*
X146726000Y-95401000D01*
G37*
G36*
X144879591Y-92415585D02*
G01*
X144913569Y-92425893D01*
X144944890Y-92442634D01*
X144972339Y-92465161D01*
X144994866Y-92492610D01*
X145011607Y-92523931D01*
X145021915Y-92557909D01*
X145026000Y-92599390D01*
X145026000Y-93200610D01*
X145021915Y-93242091D01*
X145011607Y-93276069D01*
X144994866Y-93307390D01*
X144972339Y-93334839D01*
X144944890Y-93357366D01*
X144913569Y-93374107D01*
X144879591Y-93384415D01*
X144838110Y-93388500D01*
X144161890Y-93388500D01*
X144120409Y-93384415D01*
X144086431Y-93374107D01*
X144055110Y-93357366D01*
X144027661Y-93334839D01*
X144005134Y-93307390D01*
X143988393Y-93276069D01*
X143978085Y-93242091D01*
X143974000Y-93200610D01*
X143974000Y-92599390D01*
X143978085Y-92557909D01*
X143988393Y-92523931D01*
X144005134Y-92492610D01*
X144027661Y-92465161D01*
X144055110Y-92442634D01*
X144086431Y-92425893D01*
X144120409Y-92415585D01*
X144161890Y-92411500D01*
X144838110Y-92411500D01*
X144879591Y-92415585D01*
X144879591Y-92415585D01*
G37*
G36*
X148626000Y-93001000D02*
G01*
X147874000Y-93001000D01*
X147874000Y-91199000D01*
X148626000Y-91199000D01*
X148626000Y-93001000D01*
X148626000Y-93001000D01*
G37*
G36*
X146726000Y-93001000D02*
G01*
X145974000Y-93001000D01*
X145974000Y-92499000D01*
X146726000Y-92499000D01*
X146726000Y-93001000D01*
X146726000Y-93001000D01*
G37*
G36*
X144879591Y-90840585D02*
G01*
X144913569Y-90850893D01*
X144944890Y-90867634D01*
X144972339Y-90890161D01*
X144994866Y-90917610D01*
X145011607Y-90948931D01*
X145021915Y-90982909D01*
X145026000Y-91024390D01*
X145026000Y-91625610D01*
X145021915Y-91667091D01*
X145011607Y-91701069D01*
X144994866Y-91732390D01*
X144972339Y-91759839D01*
X144944890Y-91782366D01*
X144913569Y-91799107D01*
X144879591Y-91809415D01*
X144838110Y-91813500D01*
X144161890Y-91813500D01*
X144120409Y-91809415D01*
X144086431Y-91799107D01*
X144055110Y-91782366D01*
X144027661Y-91759839D01*
X144005134Y-91732390D01*
X143988393Y-91701069D01*
X143978085Y-91667091D01*
X143974000Y-91625610D01*
X143974000Y-91024390D01*
X143978085Y-90982909D01*
X143988393Y-90948931D01*
X144005134Y-90917610D01*
X144027661Y-90890161D01*
X144055110Y-90867634D01*
X144086431Y-90850893D01*
X144120409Y-90840585D01*
X144161890Y-90836500D01*
X144838110Y-90836500D01*
X144879591Y-90840585D01*
X144879591Y-90840585D01*
G37*
G36*
X146726000Y-91701000D02*
G01*
X145974000Y-91701000D01*
X145974000Y-91199000D01*
X146726000Y-91199000D01*
X146726000Y-91701000D01*
X146726000Y-91701000D01*
G37*
G36*
X149517591Y-88978085D02*
G01*
X149551569Y-88988393D01*
X149582890Y-89005134D01*
X149610339Y-89027661D01*
X149632866Y-89055110D01*
X149649607Y-89086431D01*
X149659915Y-89120409D01*
X149664000Y-89161890D01*
X149664000Y-89838110D01*
X149659915Y-89879591D01*
X149649607Y-89913569D01*
X149632866Y-89944890D01*
X149610339Y-89972339D01*
X149582890Y-89994866D01*
X149551569Y-90011607D01*
X149517591Y-90021915D01*
X149476110Y-90026000D01*
X148874890Y-90026000D01*
X148833409Y-90021915D01*
X148799431Y-90011607D01*
X148768110Y-89994866D01*
X148740661Y-89972339D01*
X148718134Y-89944890D01*
X148701393Y-89913569D01*
X148691085Y-89879591D01*
X148687000Y-89838110D01*
X148687000Y-89161890D01*
X148691085Y-89120409D01*
X148701393Y-89086431D01*
X148718134Y-89055110D01*
X148740661Y-89027661D01*
X148768110Y-89005134D01*
X148799431Y-88988393D01*
X148833409Y-88978085D01*
X148874890Y-88974000D01*
X149476110Y-88974000D01*
X149517591Y-88978085D01*
X149517591Y-88978085D01*
G37*
G36*
X147942591Y-88978085D02*
G01*
X147976569Y-88988393D01*
X148007890Y-89005134D01*
X148035339Y-89027661D01*
X148057866Y-89055110D01*
X148074607Y-89086431D01*
X148084915Y-89120409D01*
X148089000Y-89161890D01*
X148089000Y-89838110D01*
X148084915Y-89879591D01*
X148074607Y-89913569D01*
X148057866Y-89944890D01*
X148035339Y-89972339D01*
X148007890Y-89994866D01*
X147976569Y-90011607D01*
X147942591Y-90021915D01*
X147901110Y-90026000D01*
X147299890Y-90026000D01*
X147258409Y-90021915D01*
X147224431Y-90011607D01*
X147193110Y-89994866D01*
X147165661Y-89972339D01*
X147143134Y-89944890D01*
X147126393Y-89913569D01*
X147116085Y-89879591D01*
X147112000Y-89838110D01*
X147112000Y-89161890D01*
X147116085Y-89120409D01*
X147126393Y-89086431D01*
X147143134Y-89055110D01*
X147165661Y-89027661D01*
X147193110Y-89005134D01*
X147224431Y-88988393D01*
X147258409Y-88978085D01*
X147299890Y-88974000D01*
X147901110Y-88974000D01*
X147942591Y-88978085D01*
X147942591Y-88978085D01*
G37*
G36*
X146341591Y-88978085D02*
G01*
X146375569Y-88988393D01*
X146406890Y-89005134D01*
X146434339Y-89027661D01*
X146456866Y-89055110D01*
X146473607Y-89086431D01*
X146483915Y-89120409D01*
X146488000Y-89161890D01*
X146488000Y-89838110D01*
X146483915Y-89879591D01*
X146473607Y-89913569D01*
X146456866Y-89944890D01*
X146434339Y-89972339D01*
X146406890Y-89994866D01*
X146375569Y-90011607D01*
X146341591Y-90021915D01*
X146300110Y-90026000D01*
X145698890Y-90026000D01*
X145657409Y-90021915D01*
X145623431Y-90011607D01*
X145592110Y-89994866D01*
X145564661Y-89972339D01*
X145542134Y-89944890D01*
X145525393Y-89913569D01*
X145515085Y-89879591D01*
X145511000Y-89838110D01*
X145511000Y-89161890D01*
X145515085Y-89120409D01*
X145525393Y-89086431D01*
X145542134Y-89055110D01*
X145564661Y-89027661D01*
X145592110Y-89005134D01*
X145623431Y-88988393D01*
X145657409Y-88978085D01*
X145698890Y-88974000D01*
X146300110Y-88974000D01*
X146341591Y-88978085D01*
X146341591Y-88978085D01*
G37*
G36*
X144766591Y-88978085D02*
G01*
X144800569Y-88988393D01*
X144831890Y-89005134D01*
X144859339Y-89027661D01*
X144881866Y-89055110D01*
X144898607Y-89086431D01*
X144908915Y-89120409D01*
X144913000Y-89161890D01*
X144913000Y-89838110D01*
X144908915Y-89879591D01*
X144898607Y-89913569D01*
X144881866Y-89944890D01*
X144859339Y-89972339D01*
X144831890Y-89994866D01*
X144800569Y-90011607D01*
X144766591Y-90021915D01*
X144725110Y-90026000D01*
X144123890Y-90026000D01*
X144082409Y-90021915D01*
X144048431Y-90011607D01*
X144017110Y-89994866D01*
X143989661Y-89972339D01*
X143967134Y-89944890D01*
X143950393Y-89913569D01*
X143940085Y-89879591D01*
X143936000Y-89838110D01*
X143936000Y-89161890D01*
X143940085Y-89120409D01*
X143950393Y-89086431D01*
X143967134Y-89055110D01*
X143989661Y-89027661D01*
X144017110Y-89005134D01*
X144048431Y-88988393D01*
X144082409Y-88978085D01*
X144123890Y-88974000D01*
X144725110Y-88974000D01*
X144766591Y-88978085D01*
X144766591Y-88978085D01*
G37*
G36*
X157375256Y-86391298D02*
G01*
X157481579Y-86412447D01*
X157782042Y-86536903D01*
X158052451Y-86717585D01*
X158282415Y-86947549D01*
X158463097Y-87217958D01*
X158587553Y-87518421D01*
X158651000Y-87837391D01*
X158651000Y-88162609D01*
X158587553Y-88481579D01*
X158463097Y-88782042D01*
X158282415Y-89052451D01*
X158052451Y-89282415D01*
X157782042Y-89463097D01*
X157481579Y-89587553D01*
X157375256Y-89608702D01*
X157162611Y-89651000D01*
X156837389Y-89651000D01*
X156624744Y-89608702D01*
X156518421Y-89587553D01*
X156217958Y-89463097D01*
X155947549Y-89282415D01*
X155717585Y-89052451D01*
X155536903Y-88782042D01*
X155412447Y-88481579D01*
X155349000Y-88162609D01*
X155349000Y-87837391D01*
X155412447Y-87518421D01*
X155536903Y-87217958D01*
X155717585Y-86947549D01*
X155947549Y-86717585D01*
X156217958Y-86536903D01*
X156518421Y-86412447D01*
X156624744Y-86391298D01*
X156837389Y-86349000D01*
X157162611Y-86349000D01*
X157375256Y-86391298D01*
X157375256Y-86391298D01*
G37*
G36*
X138375256Y-86391298D02*
G01*
X138481579Y-86412447D01*
X138782042Y-86536903D01*
X139052451Y-86717585D01*
X139282415Y-86947549D01*
X139463097Y-87217958D01*
X139587553Y-87518421D01*
X139651000Y-87837391D01*
X139651000Y-88162609D01*
X139587553Y-88481579D01*
X139463097Y-88782042D01*
X139282415Y-89052451D01*
X139052451Y-89282415D01*
X138782042Y-89463097D01*
X138481579Y-89587553D01*
X138375256Y-89608702D01*
X138162611Y-89651000D01*
X137837389Y-89651000D01*
X137624744Y-89608702D01*
X137518421Y-89587553D01*
X137217958Y-89463097D01*
X136947549Y-89282415D01*
X136717585Y-89052451D01*
X136536903Y-88782042D01*
X136412447Y-88481579D01*
X136349000Y-88162609D01*
X136349000Y-87837391D01*
X136412447Y-87518421D01*
X136536903Y-87217958D01*
X136717585Y-86947549D01*
X136947549Y-86717585D01*
X137217958Y-86536903D01*
X137518421Y-86412447D01*
X137624744Y-86391298D01*
X137837389Y-86349000D01*
X138162611Y-86349000D01*
X138375256Y-86391298D01*
X138375256Y-86391298D01*
G37*
M02*
